PathFileType	4	(X/Y/Z)	52_2_54_p1_0-340.trc
DataRate	CameraRate	NumFrames	NumMarkers	Units	OrigDataRate	OrigDataStartFrame	OrigNumFrames
59.0	59.0	6	27	m	59.0	127	341
Frame#	Time	RHip			RKnee			RAnkle			RBigToe			RSmallToe			RHeel			LHip			LKnee			LAnkle			LBigToe			LSmallToe			LHeel			Neck			Head			Nose			RShoulder			RElbow			RWrist			RThumb			RIndex			RPinky			LShoulder			LElbow			LWrist			LThumb			LIndex			LPinky			
		X1	Y1	Z1	X2	Y2	Z2	X3	Y3	Z3	X4	Y4	Z4	X5	Y5	Z5	X6	Y6	Z6	X7	Y7	Z7	X8	Y8	Z8	X9	Y9	Z9	X10	Y10	Z10	X11	Y11	Z11	X12	Y12	Z12	X13	Y13	Z13	X14	Y14	Z14	X15	Y15	Z15	X16	Y16	Z16	X17	Y17	Z17	X18	Y18	Z18	X19	Y19	Z19	X20	Y20	Z20	X21	Y21	Z21	X22	Y22	Z22	X23	Y23	Z23	X24	Y24	Z24	X25	Y25	Z25	X26	Y26	Z26	X27	Y27	Z27	
127	2.152542372881356	0.2544887145791415	0.4646935522646731	0.48202467200223464	0.14770047917352114	0.6574374673181448	0.9349617032578144	0.061701174237533345	0.7807805766930653	1.2729969037501998	0.005207083740762083	0.6027795986462845	1.3088730333670424	0.07261174105722616	0.6068535343581345	1.3217245685524286	0.012600448245297026	0.8832065550483059	1.3292860710990302	0.053691693453278316	0.4831750917476915	0.46122240076687476	-0.06434565830024318	0.6778735519247586	0.8756814633739751	-0.14195434828277026	0.7937038334012009	1.2330176992319073	-0.143871778060833	0.6090270042019909	1.2636402768151411	-0.19704271813367347	0.6539508774120483	1.2581729958385897	-0.13767668591981233	0.8520823588623639	1.285429996282112	0.22891695255611208	0.3447044975826924	-0.04827472152308947	0.2812384185840207	0.29618278645498897	-0.25487460204602425	0.30275682361745077	0.25562224308875453	-0.14476312406123004	0.35188724294953105	0.40088832190060564	0.002219312875221349	0.49814852980143215	0.3291265297955769	-0.17021789685938762	0.6397189499116304	0.2384447056421295	-0.33501007726162346	0.6924336241002021	0.1821070898168073	-0.43320955132832223	0.7146014488319886	0.14615419623440454	-0.45263315872060966	0.7273384224891777	0.15828735171947014	-0.40969154904366245	0.0709286497177656	0.364331510447449	0.04121402042184843	-0.012690674958973481	0.4325964663523328	0.2813157049674061	-0.08928089628174113	0.4753292756899373	0.5170987373083472	-0.11724868779366908	0.5273744788167486	0.6274342207967097	-0.16369412867487423	0.5654320988875424	0.6526031651453207	-0.18744518297823337	0.5124129542105793	0.5959701925415196
128	2.169491525423729	0.2554149042208412	0.4535856603216988	0.4810086183565156	0.14755295778555264	0.6576446464382144	0.9351569539270931	0.059803822166820765	0.7815897838945859	1.2771513158911805	0.005256305711660594	0.6028547250273328	1.3088302058561017	0.07256926245213183	0.6069723940870003	1.3217618582024189	0.012670633832371745	0.8802957224523665	1.3238638249893313	0.06000176326859038	0.4578422061784937	0.45960574477222055	-0.06435512645862934	0.6776163590774723	0.8758460061450526	-0.14192344003205173	0.7932773472975665	1.2329072158648364	-0.14491794909275932	0.5945056465339359	1.258055512551941	-0.1971088057834516	0.6534190599894955	1.2578993827792864	-0.13776477379357607	0.8507612602388062	1.2850392756959073	0.2290021167495398	0.34453799238074123	-0.04829675908399565	0.2743608611404375	0.3055119185441859	-0.2616107063389586	0.29985814305146674	0.24412655196526034	-0.14406646105036428	0.35280900862215675	0.4006967017296481	-0.0008962964694811682	0.49465307956624766	0.3411014630105179	-0.16923744624539555	0.6394877311110209	0.23854940883975123	-0.33501758061440284	0.6910523294140224	0.16978046259748839	-0.4340367179016414	0.7110203820436125	0.1455590090238001	-0.45440684676689225	0.7211151887803515	0.1317906570166535	-0.4016392621201336	0.07156673115459872	0.36239627084170084	0.03765178183238445	-0.008603671360806062	0.43356038414969134	0.28197621407917806	-0.08305516982207822	0.4884889732362057	0.5160611646476347	-0.13094267769498966	0.5397289844317313	0.6221707723042471	-0.1653293541076137	0.5347288481645944	0.6352757937863234	-0.18675401086505983	0.5097066686067694	0.5915304354128283
129	2.1864406779661016	0.25535448892078555	0.45345408897878425	0.48097623427361547	0.14756821586699326	0.6577309354129839	0.9352154812499734	0.059826646298287184	0.7817868698580047	1.277083448282592	0.005207666127293667	0.6035178536706073	1.308987910539716	0.0727126379850475	0.6074835415566358	1.321758037371817	0.01263266446658748	0.8835483104580051	1.3292473683279695	0.05622043125019584	0.4567645797851928	0.45878603442629107	-0.06430370023413215	0.6776782239457502	0.8757766550187233	-0.14211381780446192	0.7933179749313801	1.233096223043187	-0.14491163807890015	0.5944003040222627	1.2579964199976361	-0.19714403105431103	0.6535953305635324	1.258004404595564	-0.13810725227522203	0.8541180004783759	1.289824058059472	0.22898663512437395	0.344469906302172	-0.048150462862149974	0.277729417671024	0.31775118535768276	-0.26297404407504965	0.2998356637492058	0.24376857682573766	-0.1440629253809988	0.3529300437682022	0.4007142153409779	-0.0009114951076602043	0.49590889673988686	0.34053767111011074	-0.17599090475931342	0.6381253700272717	0.22543670126062312	-0.33286782024098144	0.6982457617760813	0.1579497616158797	-0.43977143357233967	0.7132226944985168	0.1312389707597031	-0.45731363773115563	0.7223686927906842	0.13066022874981473	-0.4047637954568171	0.07148798089776309	0.36259089362689784	0.037707854136358986	-0.008433821973598593	0.433334716415175	0.28201566269688105	-0.08299867274398115	0.488759536639886	0.5157879648795771	-0.13064526818397068	0.537937277406626	0.6181933177419923	-0.16473962295503933	0.546307598706936	0.6384999483656468	-0.1828280642393842	0.5126650098897746	0.593052915451002
130	2.2033898305084745	0.25538815236116447	0.45345608349225575	0.48088868644709326	0.14767969122675034	0.6576349916627139	0.9351089127115273	0.061497524701030835	0.7836498964597958	1.2783251328716252	0.005212340996669263	0.6033058825736942	1.3089361658133005	0.07258462434810573	0.6069839810610622	1.3216769566046025	0.012677730442380407	0.8834500035531465	1.3291566942637738	0.054975180835480225	0.4706691377993418	0.45984767373991087	-0.0643606757829592	0.6777625491393044	0.8758236620176452	-0.1420896787023446	0.7933898134164049	1.2331044605564807	-0.14484105969347338	0.5942287142523004	1.2579593751151155	-0.19714424915671516	0.6535708805581941	1.2579949742301826	-0.13807785568338676	0.853610589449746	1.2896353667745755	0.2290171673669059	0.34457849394970175	-0.04824674747696528	0.2742656512205433	0.30541718499572734	-0.26165730589953745	0.2976160499817884	0.23249056759525819	-0.1460541026758126	0.3529601790922716	0.4007685154379824	-0.0008393150791445149	0.4959202022933688	0.34051809574407643	-0.17607431033963453	0.6356627116192561	0.22756666532905412	-0.3370503037215711	0.6869681114936302	0.19169663770002662	-0.4402729535277374	0.7102617010362797	0.1552248087613195	-0.46604787609436277	0.7227421520353532	0.12885876015651535	-0.40878697233907585	0.07096095608334681	0.36429295768411224	0.041259634967825906	-0.008650699342888698	0.43357803383131677	0.28210773855858867	-0.08293323834977027	0.48874163116867153	0.5159584805701518	-0.11911179673230952	0.5413340313581597	0.624846309906003	-0.16066238825424767	0.5617130049437075	0.6405195652886833	-0.1786478823679866	0.5145679751806049	0.5941969086484014
131	2.2203389830508473	0.25538494859943095	0.4532361278009923	0.4808559892700347	0.14494133380685295	0.6433786471982361	0.9313010726757147	0.0597961993271021	0.7816433784974965	1.2771324152239432	0.005345014324974933	0.6033682134331076	1.308758175070678	0.07265614440962498	0.607336456152649	1.3217014099195585	0.012556879437506066	0.883491996877369	1.329343574753895	0.055033502345702104	0.47067073444085317	0.4598148417142964	-0.06495165054245464	0.6773745351707987	0.8799832530623771	-0.14213324851609252	0.7935359756118227	1.2331674619532529	-0.14485474880220636	0.5944166732721337	1.2579959483747403	-0.19716761508371486	0.6537550195101194	1.2580248813867982	-0.13799587963935658	0.8541614670995502	1.2897550722114615	0.2330309004481239	0.3326538588531735	-0.04658575972183927	0.27481319959790657	0.3048335378868232	-0.2646696837923254	0.29758412397298767	0.23224643494387784	-0.14603659980336198	0.35695572250963853	0.4012183791520269	-0.00018113096885526072	0.49954656687874005	0.32810954648059315	-0.1773302251315989	0.6400051179657429	0.21308998134002155	-0.34607669560999554	0.692584851528028	0.1692982080356117	-0.44404550263095194	0.7125149649131245	0.14197610566052477	-0.46590072167890545	0.7232055860636724	0.12754792669946283	-0.4099184665474464	0.0709360080586498	0.3643131908106811	0.0412401842329048	-0.008651027952789006	0.4336831922492865	0.28219036440511713	-0.08462420305234103	0.47551279150464315	0.5139324921758074	-0.1095703436454241	0.5280217533588198	0.6308198011211451	-0.14968630135331923	0.5642365251811863	0.6516012075891904	-0.17304969011714066	0.5482585450995752	0.6096291337390113
132	2.23728813559322	0.25551883058970454	0.4531912362138451	0.48084744384930295	0.1490542106632261	0.6446725692438613	0.9323316369474604	0.0599242622587903	0.781686715512053	1.2769918085202605	0.005177537332255156	0.6031817497778686	1.3092084956394603	0.07703383323217754	0.6088127035346989	1.323176488137136	0.012950310991043606	0.8803281673377894	1.323345853092992	0.055102238247704695	0.47066439863863435	0.4597292053881519	-0.06862759079434953	0.6624662289583694	0.8799681652974941	-0.14282387315374806	0.796249208931164	1.238854765922611	-0.14469597938395612	0.5944285502561405	1.2580419254438717	-0.19690793775293758	0.6535311622138151	1.2578913460340078	-0.13912331176705708	0.8533769066053968	1.2905510131229498	0.23296623968863867	0.33239830543754867	-0.04611044560277927	0.27477915621620036	0.3047728439587812	-0.26467776507992635	0.2969911013619877	0.23208257966776738	-0.14320275620004633	0.357114253056393	0.40083468962298274	-0.0002883718911419475	0.49973897182349747	0.32778368437395	-0.17779550953982837	0.6443822046838908	0.213138737237577	-0.34937072374501593	0.7006929732893592	0.16987523950006883	-0.44610304007797386	0.7176562269942799	0.14129055473033414	-0.46879903613862245	0.7293862224611719	0.12744578171273238	-0.4112275106201214	0.07095868073605785	0.36414420653179896	0.04140638491108698	-0.008851318860056277	0.43375207053155834	0.28588722800807737	-0.08470285246728718	0.47578360672632397	0.5141862152193254	-0.10521988984380468	0.5296077461613008	0.6281823509659165	-0.1497836821335879	0.5800437857938503	0.6616723622297136	-0.16883816932284915	0.5518729322535312	0.6111490964176819
